Never Let Me Go 2010 BDRip XVID AC3 HQ Hive-CM8



Thx Hive

CM8 Doing It Right The First Time :D

Why download a touched up rip of a rip BRrip
Get the real deal BDRip
Enjoy

Source Bluray from China

Video: 720x304 @bitrate 2100 2pass
Audio: DTS to AC3 5.1 @448
Sample: yes included

 
http://www.imdb.com/title/tt1334260/


General
Complete name : Never.Let.Me.Go.2010.BDRip.XVID.AC3.HQ.Hive-CM8.avi
Format : AVI
Format/Info : Audio Video Interleave
File size : 1.86 GiB
Duration : 1h 43mn
Overall bit rate : 2 569 Kbps
Writing application : Nandub v1.0rc2
Writing library : Nandub build 1853/release

Video
ID : 0
Format : MPEG-4 Visual
Format profile : Advanced Simple@L5
Format settings, BVOP : Yes
Format settings, QPel : Yes
Format settings, GMC : No warppoints
Format settings, Matrix : Default (H.263)
Muxing mode : Packed bitstream
Codec ID : XVID
Codec ID/Hint : XviD
Duration : 1h 43mn
Bit rate : 2 112 Kbps
Width : 720 pixels
Height : 304 pixels
Display aspect ratio : 2.35:1
Frame rate : 23.976 fps
Color space : YUV
Chroma subsampling : 4:2:0
Bit depth : 8 bits
Scan type : Progressive
Bits/(Pixel*Frame) : 0.402
Stream size : 1.53 GiB (82%)
Writing library : XviD 1.2.1 (UTC 2008-12-04)

Audio
ID : 1
Format : AC-3
Format/Info : Audio Coding 3
Mode extension : CM (complete main)
Codec ID : 2000
Duration : 1h 43mn
Bit rate mode : Constant
Bit rate : 448 Kbps
Channel(s) : 6 channels
Channel positions : Front: L C R, Side: L R, LFE
Sampling rate : 48.0 KHz
Bit depth : 16 bits
Stream size : 333 MiB (17%)
Alignment : Split accross interleaves
Interleave, duration : 42 ms (1.00 video frame)
Interleave, preload duration : 500 ms



Carey Mulligan as Kathy
Isobel Meikle-Small as Young Kathy
Keira Knightley as Ruth
Ella Purnell as Young Ruth
Andrew Garfield as Tommy
Charlie Rowe as Young Tommy
Sally Hawkins as Miss Lucy
Charlotte Rampling as Miss Emily
Nathalie Richard as Madame
Andrea Riseborough as Chrissie



As children, Ruth, Kathy and Tommy, spend their childhood at a seemingly
idyllic English boarding school. As they grow into young adults, they find
that they have to come to terms with the strength of the love they feel for
each other, while preparing themselves for the haunting reality that awaits them.